<svg width="45" height="42" viewBox="0 0 45 42" fill="none" xmlns="http://www.w3.org/2000/svg">
<path d="M6.91499 10.7127L7.05003 11H7.3675H33.25C33.5815 11 33.8995 11.1317 34.1339 11.3661C34.3683 11.6005 34.5 11.9185 34.5 12.25C34.5 12.447 34.4428 12.6661 34.3408 12.904L28.0883 24.2041C28.0882 24.2042 28.0881 24.2044 28.088 24.2046C27.5772 25.1206 26.5854 25.75 25.4625 25.75H12.425H12.1299L11.9873 26.0083L10.4123 28.8608L10.3808 28.9179L10.3649 28.9812L10.3124 29.1912L10.2975 29.2509V29.3125C10.2975 29.5611 10.3963 29.7996 10.5721 29.9754L10.9256 29.6219L10.5721 29.9754C10.7479 30.1512 10.9864 30.25 11.235 30.25H31V32.75H10.5C9.70435 32.75 8.94129 32.4339 8.37868 31.8713C7.81607 31.3087 7.5 30.5456 7.5 29.75C7.5 29.2243 7.63498 28.7288 7.85905 28.3093L10.2372 24.0252L10.3619 23.8005L10.2518 23.5682L3.95176 10.2857L3.81624 10H3.5H0.5V7.5H5.40503L6.91499 10.7127ZM26.25 23.25H26.5441L26.687 22.993L31.552 14.243L31.9651 13.5H31.115H8.995H8.2061L8.54284 14.2134L12.6728 22.9634L12.8081 23.25H13.125H26.25ZM28 35.5C28.7956 35.5 29.5587 35.8161 30.1213 36.3787C30.6839 36.9413 31 37.7044 31 38.5C31 39.2957 30.6839 40.0587 30.1213 40.6213C29.5587 41.1839 28.7956 41.5 28 41.5C27.2044 41.5 26.4413 41.1839 25.8787 40.6213C25.3161 40.0587 25 39.2957 25 38.5C25 36.8336 26.3336 35.5 28 35.5ZM10.5 35.5C11.2956 35.5 12.0587 35.8161 12.6213 36.3787C13.1839 36.9413 13.5 37.7044 13.5 38.5C13.5 39.2957 13.1839 40.0587 12.6213 40.6213C12.0587 41.1839 11.2956 41.5 10.5 41.5C9.70435 41.5 8.94129 41.1839 8.37868 40.6213C7.81607 40.0587 7.5 39.2957 7.5 38.5C7.5 36.8336 8.83364 35.5 10.5 35.5Z" fill="white" stroke="black"/>
<circle cx="36.5" cy="8.5" r="8.5" fill="#009A4C"/>
<path d="M36.415 13.1523C35.5137 13.1523 34.8091 12.7651 34.3013 11.9907C33.7977 11.2163 33.5459 10.097 33.5459 8.63281C33.5459 7.02474 33.8083 5.80811 34.333 4.98291C34.862 4.15771 35.6237 3.74512 36.6182 3.74512C38.5225 3.74512 39.4746 5.30029 39.4746 8.41064C39.4746 9.95101 39.2059 11.1274 38.6685 11.9399C38.131 12.7482 37.3799 13.1523 36.415 13.1523ZM36.561 4.62744C35.2619 4.62744 34.6123 5.94564 34.6123 8.58203C34.6123 11.0449 35.2492 12.2764 36.5229 12.2764C37.7798 12.2764 38.4082 11.0238 38.4082 8.51855C38.4082 5.92448 37.7925 4.62744 36.561 4.62744Z" fill="white"/>
</svg>
